<?xml version="1.0" standalone="no"?>
<!DOCTYPE svg PUBLIC "-//W3C//DTD SVG 20010904//EN"
 "http://www.w3.org/TR/2001/REC-SVG-20010904/DTD/svg10.dtd">
<svg version="1.0" xmlns="http://www.w3.org/2000/svg"
 width="700.000000pt" height="700.000000pt" viewBox="0 0 700.000000 700.000000"
 preserveAspectRatio="xMidYMid meet">
<metadata>
Created by potrace 1.14, written by Peter Selinger 2001-2017
</metadata>
<g transform="translate(0.000000,700.000000) scale(0.100000,-0.100000)"
fill="#000000" stroke="none">
<path d="M200 6983 c-29 -11 -66 -38 -106 -77 -105 -105 -94 291 -94 -3406 0
-3697 -11 -3301 94 -3406 105 -105 -291 -94 3406 -94 3697 0 3301 -11 3406 94
105 105 94 -291 94 3406 0 3697 11 3301 -94 3406 -105 105 291 94 -3410 93
-2940 -1 -3255 -2 -3296 -16z m2430 -47 c611 -73 1130 -234 1605 -499 137 -76
387 -244 510 -343 130 -105 366 -333 475 -459 312 -363 563 -810 714 -1274
220 -671 254 -1380 97 -1981 -202 -774 -653 -1433 -1266 -1849 -287 -195 -538
-309 -860 -391 -277 -71 -512 -100 -801 -100 -491 0 -856 97 -1244 332 -319
193 -581 465 -749 779 -323 605 -319 1412 9 2027 266 497 686 829 1248 988 17
5 -15 63 -94 174 -67 93 -133 168 -381 432 -226 240 -272 295 -365 437 -237
363 -399 887 -424 1371 -5 90 -3 137 6 164 14 44 61 101 100 121 48 25 347 70
585 89 126 10 706 -3 835 -18z"/>
<path d="M1815 6544 c-11 -1 -80 -8 -153 -15 -102 -9 -135 -15 -139 -27 -9
-22 34 -268 72 -417 67 -263 189 -537 320 -720 35 -49 145 -175 243 -280 406
-431 517 -574 607 -782 l34 -78 118 -11 c381 -37 665 -165 900 -407 528 -544
574 -1461 96 -1941 -130 -130 -293 -223 -480 -273 -87 -23 -118 -26 -273 -27
-111 -1 -197 4 -235 12 -197 44 -352 113 -481 216 -159 127 -252 287 -284 488
-19 120 -8 312 24 421 71 237 211 415 402 508 111 54 202 72 334 66 192 -9
312 -59 430 -177 118 -117 170 -245 170 -420 0 -101 -18 -178 -65 -278 -119
-252 -423 -353 -534 -176 -39 60 -46 103 -27 168 19 64 73 118 136 137 54 16
82 67 82 149 0 130 -72 190 -226 190 -81 0 -132 -19 -190 -70 -133 -117 -182
-392 -100 -565 47 -101 184 -197 339 -241 91 -25 286 -30 378 -10 253 56 421
232 493 514 86 340 -17 741 -261 1011 -226 249 -621 353 -1024 271 -450 -91
-844 -401 -1062 -832 -237 -470 -239 -1110 -3 -1579 144 -289 386 -529 705
-702 321 -173 670 -241 1109 -216 780 44 1410 382 1879 1009 288 384 476 844
553 1350 21 136 17 604 -5 765 -116 821 -481 1537 -1052 2065 -553 511 -1273
814 -2129 895 -138 13 -630 20 -701 9z"/>
</g>
</svg>
